<?xml version="1.0" encoding="utf-8"?>
<!-- Generator: Adobe Illustrator 16.0.0, SVG Export Plug-In . SVG Version: 6.00 Build 0)  -->
<!DOCTYPE svg PUBLIC "-//W3C//DTD SVG 1.1//EN" "http://www.w3.org/Graphics/SVG/1.1/DTD/svg11.dtd">
<svg version="1.1" id="图层_1" xmlns="http://www.w3.org/2000/svg" xmlns:xlink="http://www.w3.org/1999/xlink" x="0px" y="0px"
	 width="200px" height="200px" viewBox="0 0 200 200" enable-background="new 0 0 200 200" xml:space="preserve">
<path fill="#66AFFF" d="M110.195,27.109c0.02-2.012-2.051-3.398-4.023-2.715L41.543,47.578c-1.172,0.41-1.953,1.504-1.953,2.715
	v111.836h70.605V27.109z M70.273,139.902c0,2.402-1.992,4.355-4.492,4.355H57.93c-2.48,0-4.492-1.934-4.492-4.355v-2.891
	c0-2.402,1.992-4.355,4.492-4.355h7.852c2.48,0,4.492,1.934,4.492,4.355V139.902z M70.273,122.949c0,2.402-1.992,4.355-4.492,4.355
	H57.93c-2.48,0-4.492-1.934-4.492-4.355v-2.891c0-2.402,1.992-4.355,4.492-4.355h7.852c2.48,0,4.492,1.934,4.492,4.355V122.949z
	 M70.273,105.117c0,2.402-1.992,4.355-4.492,4.355H57.93c-2.48,0-4.492-1.934-4.492-4.355v-2.891c0-2.402,1.992-4.355,4.492-4.355
	h7.852c2.48,0,4.492,1.934,4.492,4.355V105.117z M70.273,87.637c0,2.402-1.992,4.355-4.492,4.355H57.93
	c-2.48,0-4.492-1.934-4.492-4.355v-2.891c0-2.402,1.992-4.355,4.492-4.355h7.852c2.48,0,4.492,1.934,4.492,4.355V87.637z
	 M70.273,70.176c0,2.402-1.992,4.355-4.492,4.355H57.93c-2.48,0-4.492-1.934-4.492-4.355v-2.891c0-2.402,1.992-4.355,4.492-4.355
	h7.852c2.48,0,4.492,1.934,4.492,4.355V70.176z M96.797,139.902c0,2.402-1.992,4.355-4.492,4.355h-7.852
	c-2.48,0-4.492-1.934-4.492-4.355v-2.891c0-2.402,1.992-4.355,4.492-4.355h7.852c2.48,0,4.492,1.934,4.492,4.355V139.902z
	 M96.797,122.949c0,2.402-1.992,4.355-4.492,4.355h-7.852c-2.48,0-4.492-1.934-4.492-4.355v-2.891c0-2.402,1.992-4.355,4.492-4.355
	h7.852c2.48,0,4.492,1.934,4.492,4.355V122.949z M96.797,105.117c0,2.402-1.992,4.355-4.492,4.355h-7.852
	c-2.48,0-4.492-1.934-4.492-4.355v-2.891c0-2.402,1.992-4.355,4.492-4.355h7.852c2.48,0,4.492,1.934,4.492,4.355V105.117z
	 M96.797,87.637c0,2.402-1.992,4.355-4.492,4.355h-7.852c-2.48,0-4.492-1.934-4.492-4.355v-2.891c0-2.402,1.992-4.355,4.492-4.355
	h7.852c2.48,0,4.492,1.934,4.492,4.355V87.637z M96.797,70.176c0,2.402-1.992,4.355-4.492,4.355h-7.852
	c-2.48,0-4.492-1.934-4.492-4.355v-2.891c0-2.402,1.992-4.355,4.492-4.355h7.852c2.48,0,4.492,1.934,4.492,4.355V70.176z
	 M96.797,53.125c0,2.402-1.992,4.355-4.492,4.355h-7.852c-2.48,0-4.492-1.934-4.492-4.355v-2.891c0-2.402,1.992-4.355,4.492-4.355
	h7.852c2.48,0,4.492,1.934,4.492,4.355V53.125z M163.711,66.074c0.02-1.074-0.586-2.051-1.543-2.559l-42.363-22.188
	c-1.992-1.055-4.414,0.371-4.414,2.559v118.262h48.32V66.074L163.711,66.074z M147.383,139.902c0,2.402-1.992,4.355-4.492,4.355
	h-7.852c-2.48,0-4.492-1.934-4.492-4.355v-2.891c0-2.402,1.992-4.355,4.492-4.355h7.852c2.48,0,4.492,1.934,4.492,4.355V139.902z
	 M147.383,122.949c0,2.402-1.992,4.355-4.492,4.355h-7.852c-2.48,0-4.492-1.934-4.492-4.355v-2.891c0-2.402,1.992-4.355,4.492-4.355
	h7.852c2.48,0,4.492,1.934,4.492,4.355V122.949z M147.383,105.117c0,2.402-1.992,4.355-4.492,4.355h-7.852
	c-2.48,0-4.492-1.934-4.492-4.355v-2.891c0-2.402,1.992-4.355,4.492-4.355h7.852c2.48,0,4.492,1.934,4.492,4.355V105.117z
	 M147.383,87.637c0,2.402-1.992,4.355-4.492,4.355h-7.852c-2.48,0-4.492-1.934-4.492-4.355v-2.891c0-2.402,1.992-4.355,4.492-4.355
	h7.852c2.48,0,4.492,1.934,4.492,4.355V87.637z M147.383,70.176c0,2.402-1.992,4.355-4.492,4.355h-7.852
	c-2.48,0-4.492-1.934-4.492-4.355v-2.891c0-2.402,1.992-4.355,4.492-4.355h7.852c2.48,0,4.492,1.934,4.492,4.355V70.176z"/>
<path fill="#66AFFF" d="M171.094,175.938H28.75c-1.641,0-2.969-1.563-2.969-3.457v-6.895c0-1.895,1.328-3.457,2.969-3.457h142.344
	c1.641,0,2.969,1.563,2.969,3.457v6.895C174.063,174.395,172.734,175.938,171.094,175.938z"/>
</svg>
